<?xml version="1.0" encoding="utf-8"?>
<!-- Generator: Adobe Illustrator 17.1.0, SVG Export Plug-In . SVG Version: 6.00 Build 0)  -->
<!DOCTYPE svg PUBLIC "-//W3C//DTD SVG 1.1//EN" "http://www.w3.org/Graphics/SVG/1.1/DTD/svg11.dtd">
<svg version="1.1" id="Layer_1" xmlns="http://www.w3.org/2000/svg" xmlns:xlink="http://www.w3.org/1999/xlink" x="0px" y="0px"
	 viewBox="0 0 275.5 71.5" enable-background="new 0 0 275.5 71.5" xml:space="preserve">
<g>
	<path fill="#4C4C4C" d="M272,12.1c-1.9-0.5-3.9,0.5-5.2,2c-0.3-1.8-1.4-3.9-3.3-4.4c-2.6-0.8-5.3,0.8-6.1,3.4
		c-1.5,5.1,2.8,8,5,13.6c0.2,0.5,0.8,0.7,1.3,0.4c4.8-3.6,10.1-3.9,11.6-8.8C276,15.6,274.5,12.8,272,12.1z"/>
	<path fill="#4C4C4C" d="M195.4,40.2c-0.2-0.1-0.4-0.2-0.6-0.3c-0.5-0.2-1,0-1.2,0.5c-2.8,5.6-5.7,9.7-8.9,9.7c-2.8,0-2.8-2.7-2-5.2
		l8.1-34.1c0.2-0.6-0.3-1.2-1-1.2h-3.3c-0.4,0-0.8,0.2-1,0.6c0,0-9.1,39.9-15.6,39.9c-2.1,0-1.9-2.5-1.3-4.5l5-16.6
		c0.2-0.6-0.3-1.5-1-1.5h-3.3c-0.4,0-0.8,0.4-1,0.9l-4.9,15.8c-1.9,2.8-4.3,5-7,5c-3.4,0-3.8-2.8-2.8-5.8l4.4-14.5
		c0.2-0.6-0.3-1.4-1-1.4h-3.4c-0.4,0-0.8,0.4-1,0.9c0,0-4.7,21.5-14.9,21.5c-0.6,0-5.5-1.2-5.7-3l0.8-4c5.2-4.3,11.4-10.1,14.2-16
		c4-8.4,3.5-16.8-5.1-17.9c-3.1-0.4-6.1,2.1-7.6,6.9L128,42.1c-2.4,3.1-5.7,6.8-8.3,8.1c-2.7,1.3-3.7-2.3-2.6-6l4.5-18.4
		c2,0,4,0,6,0c1.1,0,2.4-4,1.2-4c-2.1,0-4.2,0-6.3,0l2.6-10.6c0.2-0.8-0.5-1.4-1.2-1.2l-3.7,1c-0.3,0.1-0.6,0.3-0.7,0.7
		c0,0-0.9,4.1-2.4,10.1c-3.4,0-6.8,0-10.3,0c-1.1,0-2.4,4-1.2,4c3.5,0,7,0,10.5,0c-3,11-7.7,24.6-12.1,24.6c-2.1,0-2-2.3-1.3-4.5
		l1.8-5.9c1.7-6.7-8.7-10.7-8.7-10.7s2.1-4.4,0.2-6.7c-0.7-0.8-1.9-1.4-3.8-1.4c-1.4,0-3.2,0.8-3.8,2.4c-1.8,4.3,2.2,6.6,2.2,6.6
		s-4.5,20-10.5,20c-2.1,0-2-2.3-1.3-4.4L84,29.1c0.2-0.6-0.3-1.4-1-1.4h-3.4c-0.4,0-0.8,0.4-1,0.9l-1.4,4.5
		c-1.1-3.6-3.9-5.6-7.5-5.6c-6.7,0-10.5,7-14,13.3c-6.6,11.6-19,12-19.3,7.6c0,0,15.8-8.6,15.8-14.6c0-3.5-2.5-6.3-7.6-6.3
		c-8.6,0-14.2,6.1-14.2,13.7c0,2.1,0.4,4.2,1.3,6c-0.5,0.4-3.7,3.1-6.2,3.1c-3.8,0-3.2-3.7,0.1-12.4c1.9-5,0.3-10.4-5.5-10.4
		c-3.2,0-6.1,1-8.5,4.2l3.4-13.5c4.4-1.3,8.2-4.4,9.5-8.8c1.1-3.6,0.6-8.7-4.1-9.3c-7.7-1-10.3,15.2-10.3,15.2
		c-3.2,0.6-5.3-0.6-7.1-2.2c-0.7-0.6-1.7-0.1-1.7,0.7v0.9c0,0.3,0.2,0.6,0.4,0.8c1.8,1.5,4.2,3,7.7,3L0,52.4c-0.2,0.6,0.3,1.3,1,1.3
		h3.4c0.4,0,0.8-0.3,1-0.8l4.8-15.8c2-2.8,4.4-5,7.1-5.1c1.8-0.1,3,0.3,3.5,1.1c1.2,2-2.8,10.9-2.8,14.6c0,2.2,1.9,6.2,6.3,6.2
		c5,0,9.3-3.9,9.3-3.9l0,0c2,2.4,4.9,3.9,8.4,3.9c6.1,0,10.7-3.1,14.1-7.5c0.6,4.8,3.8,7.5,8.3,7.5c3.5,0,6.6-1.8,8.9-4.6
		C73.4,52,74.7,54,78,54c13.3,0,13.3-14.3,16.8-21.8c0.3-0.7,2.8,1.1,2.8,1.1c2.1,1.7,2.7,2.8,1.8,5.9l-1.7,5.4
		c-1.2,3.9-1.3,9.5,4.2,9.5c3.6,0,6.8-2.6,9.5-6.4c0.1,3.6,1.9,6.4,6.6,6.4c3.3,0,5.8-1.7,8.2-4.2l-3,12.2c-1.3,4.2-1,9.4,5.1,9.4
		c5.5,0,8.5-4.3,10-9.1c1.1-3.7,1-6.9-0.3-9.3c4.1-0.1,7.2-2.4,9.6-5.4c0.1,3.5,1.9,6.4,6.5,6.4c3.7,0,6.7-2.3,8.8-4.9
		c0.2,2.6,1.3,4.9,4.8,4.9c3.5,0,6.6-2.4,9.3-6c0,3.4,1.6,6,5.7,6c5.6,0,9.7-5.4,13.2-12.5C196,41.1,195.8,40.5,195.4,40.2z
		 M20.3,3.8c1.1,0,2.2,0.7,2.2,2.4c0,1.2-0.6,4.4-2.2,5.9c-2.2,2.1-4.8,2-4.8,2S16.3,3.8,20.3,3.8z M39.1,33.3
		c1.8-1.8,6.1-2.9,7.7-0.8c3.4,4.4-11,12.4-11,12.4C34.7,40.3,36.3,36.1,39.1,33.3z M75.1,40.3c-1.3,4.8-5.5,10.4-9.8,10.4
		c-3.1,0-4.2-2.9-4.2-7c0-5.5,4.7-11.1,9.3-11.1C73.3,32.6,76.3,36.1,75.1,40.3z M92,27.6c0,0-1.8-0.5-1.2-2.9
		c0.4-1.5,2.1-1.3,2.3-0.8C93.4,24.8,92,27.6,92,27.6z M144.1,14c4.6,1.6,1.9,14.9-10.1,23C134,37,138.3,12,144.1,14z M135.4,61.5
		c-1.3,4.1-3.2,6.3-5.5,6.3c-2.3,0-2.5-2-1.9-4.1l3.7-12.1c0.6,0.3,1.2,0.5,1.8,0.7C136.1,53.8,136.9,57,135.4,61.5z"/>
	<path fill="#4C4C4C" d="M201.6,46.9c-2,0-3.6,1.6-3.6,3.6c0,2,1.6,3.6,3.6,3.6c2,0,3.6-1.6,3.6-3.6
		C205.2,48.5,203.6,46.9,201.6,46.9z"/>
	<path fill="#4C4C4C" d="M260.7,31.7L260.7,31.7c-0.3,0-0.6,0-0.7,0.2c-1,2.6-6.3,15.8-14.8,20.9l7.2-23.7c0.2-0.6-0.3-1.5-1-1.5
		h-3.3c-0.4,0-0.8,0.4-1,0.9c0,0-5.4,20.8-12,20.8c-3.5,0-3.8-2.7-2.8-5.8l4.4-14.4c0.2-0.6-0.3-1.4-1-1.4h-3.4
		c-0.4,0-0.8,0.4-1,0.9c0,0-6.3,21.6-12.6,21.6c-2.8,0-2.8-2.7-2-5.2l8.1-34.1c0.2-0.6-0.3-1.1-1-1.1h-3.3c-0.4,0-0.8,0.2-1,0.6
		l-7.8,33.4c-1.6,5.2-0.7,10.3,5,10.3c3.7,0,6.8-2.4,9.4-6c0.1,3.4,2,6,6.5,6c3.2,0,5.8-1.7,7.9-4.4l-1.8,5.8
		c-5.2,1.7-14.5,2.5-14.5,9c0,3.4,2.6,5.8,6.7,5.8c4.1,0,9.5-2.6,12.5-12.3l0.5-1.7c10.9-5.1,16.9-19.1,18.3-23.5
		C262.6,32,261.4,31.7,260.7,31.7z M237.7,59.3c-1.7,5.4-4.3,7.8-7.1,7.8c-1.9,0-3.1-1.3-3.1-2.9c0-3.5,5.7-4.3,10.5-5.7L237.7,59.3
		z"/>
</g>
</svg>
