<?xml version="1.0" encoding="utf-8"?>
<!-- Generator: Adobe Illustrator 17.1.0, SVG Export Plug-In . SVG Version: 6.00 Build 0)  -->
<!DOCTYPE svg PUBLIC "-//W3C//DTD SVG 1.1//EN" "http://www.w3.org/Graphics/SVG/1.1/DTD/svg11.dtd">
<svg version="1.1" id="Layer_1" xmlns="http://www.w3.org/2000/svg" xmlns:xlink="http://www.w3.org/1999/xlink" x="0px" y="0px"
	 viewBox="0 0 135.4 135.4" enable-background="new 0 0 135.4 135.4" xml:space="preserve">
<g>
	<path fill="#C43580" d="M67.3,37.9c2.6-2.5,3.6-7.6,3.6-9.6c0-2.9-1.7-3.9-3.5-3.9c-6.4,0-7.8,16.8-7.8,16.8S63.7,41.3,67.3,37.9z"
		/>
	<path fill="#C43580" d="M67.7,0C30.3,0,0,30.3,0,67.7c0,37.4,30.3,67.7,67.7,67.7s67.7-30.3,67.7-67.7C135.4,30.3,105.1,0,67.7,0z
		 M87.9,99.5c-1.9,1.5-7.7,5.7-14.3,5.7c-7.1,0-10.2-6.4-10.2-10c0-6,6.4-20.4,4.6-23.6c-0.8-1.4-2.7-1.9-5.6-1.8
		C58,70,54.1,73.4,51,78l-7.7,25.6c-0.2,0.7-0.8,1.3-1.5,1.3h-5.5c-1.1,0-1.8-1.2-1.6-2.2l15-54.8c-5.7,0-9.3-2.4-12.2-4.9
		c-0.4-0.3-0.4-0.8-0.4-1.3v-1.4c0-1.4,1.5-2.1,2.5-1.2c2.9,2.6,6.2,4.5,11.3,3.5c0,0,4.1-26,16.6-24.4c7.6,1,8.4,9.2,6.6,15
		c-2.1,7-8.3,11.9-15.4,14.1l-5.4,21.8c3.8-5.2,8.4-6.7,13.6-6.7c9.4,0,11.9,8.6,8.9,16.7c-5.3,14-6.2,20-0.1,20
		c3.3,0,7.4-2.9,9.2-4.4c0.5-0.4,1.2-0.2,1.5,0.3l1.8,3.1C88.4,98.7,88.3,99.2,87.9,99.5z M110.5,80.9c-2,6.8-9.4,7.2-15.9,12.1
		c-0.6,0.5-1.5,0.2-1.8-0.5c-3.1-7.8-8.9-11.8-6.9-18.8c1.1-3.6,4.8-5.8,8.4-4.7c2.6,0.8,4.2,3.6,4.6,6.1c1.7-1.9,4.5-3.5,7.1-2.7
		C109.6,73.4,111.6,77.2,110.5,80.9z"/>
</g>
</svg>
